<svg width="56" height="60" viewBox="0 0 56 60" fill="none" xmlns="http://www.w3.org/2000/svg">
<path d="M27.835 0.740717C27.9145 0.624803 28.0855 0.624803 28.165 0.740717L30.0758 3.52887C30.1018 3.56682 30.1401 3.59464 30.1842 3.60765L33.4264 4.56338C33.5612 4.60312 33.6141 4.76581 33.5284 4.87718L31.4672 7.55609C31.4391 7.59255 31.4245 7.63757 31.4258 7.68355L31.5187 11.0624C31.5226 11.2029 31.3842 11.3034 31.2518 11.2563L28.067 10.1238C28.0237 10.1084 27.9763 10.1084 27.933 10.1238L24.7482 11.2563C24.6158 11.3034 24.4774 11.2029 24.4813 11.0624L24.5742 7.68355C24.5755 7.63757 24.5609 7.59255 24.5328 7.55609L22.4716 4.87718C22.3859 4.76581 22.4388 4.60312 22.5736 4.56338L25.8158 3.60765C25.8599 3.59464 25.8982 3.56682 25.9242 3.52887L27.835 0.740717Z" fill="#005AA3"/>
<path fill-rule="evenodd" clip-rule="evenodd" d="M38 31.4971H35.5789L28.1843 13.9349C28.1156 13.7717 27.8844 13.7717 27.8157 13.9349L20.4211 31.4971H18C17.4477 31.4971 17 31.9448 17 32.4971V58.4971C17 59.0494 17.4477 59.4971 18 59.4971H24V49.4971C24 47.288 25.7909 45.4971 28 45.4971C30.2091 45.4971 32 47.288 32 49.4971V59.4971H38C38.5523 59.4971 39 59.0494 39 58.4971V32.4971C39 31.9448 38.5523 31.4971 38 31.4971ZM28 39.4971C30.2091 39.4971 32 37.7062 32 35.4971C32 33.2879 30.2091 31.4971 28 31.4971C25.7909 31.4971 24 33.2879 24 35.4971C24 37.7062 25.7909 39.4971 28 39.4971Z" fill="#191C1E"/>
<path d="M0 42.2C0 41.9362 0.315899 41.8009 0.506897 41.9828L1.90642 43.3156C2.01675 43.4207 2.18832 43.4264 2.30537 43.3289L4.31182 41.6568C4.42134 41.5656 4.57996 41.564 4.69128 41.653L6.81259 43.3501C6.92216 43.4377 7.07784 43.4377 7.18741 43.3501L9.30872 41.653C9.42004 41.564 9.57866 41.5656 9.68818 41.6568L11.6946 43.3289C11.8117 43.4264 11.9833 43.4207 12.0936 43.3156L13.4931 41.9828C13.6841 41.8009 14 41.9362 14 42.2C14 47.8667 14 53.5333 14 59.2C14 59.3657 13.8657 59.5 13.7 59.5H0.3C0.134315 59.5 0 59.3657 0 59.2V42.2Z" fill="#191C1E"/>
<path d="M42 42.2C42 41.9362 42.3159 41.8009 42.5069 41.9828L43.9064 43.3156C44.0167 43.4207 44.1883 43.4264 44.3054 43.3289L46.3118 41.6568C46.4213 41.5656 46.58 41.564 46.6913 41.653L48.8126 43.3501C48.9222 43.4377 49.0778 43.4377 49.1874 43.3501L51.3087 41.653C51.42 41.564 51.5787 41.5656 51.6882 41.6568L53.6946 43.3289C53.8117 43.4264 53.9833 43.4207 54.0936 43.3156L55.4931 41.9828C55.6841 41.8009 56 41.9362 56 42.2C56 47.8667 56 53.5333 56 59.2C56 59.3657 55.8657 59.5 55.7 59.5H42.3C42.1343 59.5 42 59.3657 42 59.2V42.2Z" fill="#191C1E"/>
</svg>
