<svg width="25" height="24" viewBox="0 0 25 24" fill="none" xmlns="http://www.w3.org/2000/svg">
<path d="M12.5 22C18.0228 22 22.5 17.5228 22.5 12C22.5 6.47715 18.0228 2 12.5 2C6.97715 2 2.5 6.47715 2.5 12C2.5 17.5228 6.97715 22 12.5 22Z" fill="#03A7DF"/>
<path d="M17.4908 7.86343C17.5764 7.28809 17.0499 6.83396 16.5576 7.05857L6.75081 11.532C6.39772 11.6931 6.42355 12.2488 6.78976 12.3699L8.81213 13.0391C9.19816 13.1668 9.61609 13.1007 9.95317 12.8588L14.5128 9.58593C14.6503 9.48721 14.8002 9.69036 14.6827 9.81614L11.4006 13.3319C11.0822 13.6729 11.1454 14.2509 11.5284 14.5004L15.2031 16.8945C15.6152 17.163 16.1454 16.8933 16.2225 16.3758L17.4908 7.86343Z" fill="white"/>
</svg>
