<svg width="25" height="24" viewBox="0 0 25 24" fill="none" xmlns="http://www.w3.org/2000/svg">
<path d="M12.5 2C9.84784 2 7.3043 3.05357 5.42893 4.92893C3.55357 6.8043 2.5 9.34784 2.5 12C2.5 14.6522 3.55357 17.1957 5.42893 19.0711C7.3043 20.9464 9.84784 22 12.5 22C15.1522 22 17.6957 20.9464 19.5711 19.0711C21.4464 17.1957 22.5 14.6522 22.5 12C22.5 9.34784 21.4464 6.8043 19.5711 4.92893C17.6957 3.05357 15.1522 2 12.5 2Z" fill="#1976D2"/>
<path d="M18.4685 9.0205C18.4915 8.945 18.5025 8.875 18.4995 8.8125C18.492 8.6315 18.3675 8.5 18.0745 8.5H16.7655C16.435 8.5 16.2825 8.7 16.1935 8.9005C16.1935 8.9005 15.3775 10.58 14.437 11.6875C14.132 12.008 13.977 12 13.812 12C13.7235 12 13.5 11.893 13.5 11.5995V9.007C13.5 8.66 13.4135 8.5 13.134 8.5H10.8095C10.606 8.5 10.5 8.66 10.5 8.8205C10.5 9.154 10.949 9.234 11 10.1685V11.98C11 12.42 10.9235 12.5 10.7585 12.5C10.3135 12.5 9.4375 11 8.851 9.034C8.724 8.647 8.597 8.5 8.2665 8.5H6.945C6.5635 8.5 6.5 8.687 6.5 8.887C6.5 9.2475 6.8 11.1965 8.4375 13.4375C9.625 15.0625 11.1895 16 12.5745 16C13.4135 16 13.4995 15.7865 13.4995 15.453V13.967C13.5 13.5665 13.5915 13.5 13.8585 13.5C14.049 13.5 14.4375 13.625 15.1875 14.5C16.0525 15.509 16.2095 16 16.7055 16H18.0145C18.3185 16 18.493 15.8725 18.5 15.625C18.5015 15.562 18.4925 15.4915 18.472 15.413C18.375 15.125 17.93 14.421 17.375 13.75C17.0675 13.3785 16.764 13.0105 16.6245 12.8105C16.531 12.68 16.4955 12.588 16.5 12.5C16.5045 12.4075 16.5525 12.3195 16.6245 12.1965C16.6115 12.1965 18.3035 9.821 18.4685 9.0205Z" fill="white"/>
</svg>
