<svg width="25" height="24" viewBox="0 0 25 24" fill="none" xmlns="http://www.w3.org/2000/svg">
<path d="M2.5 22L4.22 16.8403C3.34724 15.3724 2.84483 13.6593 2.84483 11.8276C2.84483 6.4 7.24483 2 12.6724 2C18.1 2 22.5 6.4 22.5 11.8276C22.5 17.2552 18.1 21.6552 12.6724 21.6552C11.021 21.6552 9.46586 21.2459 8.1 20.5266L2.5 22Z" fill="#2CB742"/>
<path d="M18.9431 15.0952C18.4893 14.2376 16.8159 13.2569 16.8159 13.2569C16.4372 13.0411 15.9803 13.0169 15.7645 13.4018C15.7645 13.4018 15.2207 14.0538 15.0824 14.1476C14.4507 14.5756 13.8655 14.559 13.2748 13.9683L11.9021 12.5956L10.5293 11.2228C9.93862 10.6321 9.92207 10.0469 10.35 9.41522C10.4438 9.27694 11.0959 8.73315 11.0959 8.73315C11.4807 8.51694 11.4566 8.06039 11.2407 7.68177C11.2407 7.68177 10.26 6.00832 9.40241 5.55453C9.03759 5.36142 8.58966 5.42901 8.29793 5.72073L7.69172 6.32694C5.76862 8.25004 6.71552 10.4211 8.63862 12.3442L10.3962 14.1018L12.1538 15.8594C14.0769 17.7825 16.2479 18.7294 18.171 16.8062L18.7772 16.2C19.069 15.9076 19.1362 15.4597 18.9431 15.0952Z" fill="white"/>
</svg>
